<?xml version="1.0" encoding="iso-8859-1"?>
<!-- Generator: Adobe Illustrator 19.0.0, SVG Export Plug-In . SVG Version: 6.00 Build 0)  -->
<svg version="1.1" id="Layer_1" xmlns="http://www.w3.org/2000/svg" xmlns:xlink="http://www.w3.org/1999/xlink" x="0px" y="0px"
	 viewBox="0 0 512.001 512.001" style="enable-background:new 0 0 512.001 512.001;" xml:space="preserve">
<g>
	<g>
		<path d="M510.985,307.541l-29.357-119.62c-3.819-15.559-17.674-26.426-33.695-26.426H64.067
			c-16.021,0-29.877,10.866-33.695,26.426L1.014,307.541c-2.557,10.42-0.227,21.238,6.394,29.681
			c6.621,8.442,16.571,13.284,27.301,13.284H477.29c10.73,0,20.68-4.842,27.302-13.284
			C511.213,328.779,513.544,317.96,510.985,307.541z M490.946,326.52c-3.311,4.223-8.289,6.645-13.656,6.645H34.711
			c-5.367,0-10.345-2.422-13.656-6.645c-3.312-4.223-4.479-9.634-3.199-14.846l29.357-119.62c1.91-7.783,8.841-13.217,16.854-13.217
			h383.867c8.014,0,14.943,5.435,16.855,13.217l29.357,119.62C495.425,316.886,494.258,322.297,490.946,326.52z"/>
	</g>
</g>
<g>
	<g>
		<path d="M166.859,259.468H144.56c-4.789,0-8.671,3.882-8.671,8.671c0,4.789,3.882,8.671,8.671,8.671h11.733
			c-3.294,7.157-10.533,12.138-18.915,12.138c-11.473,0-20.808-9.334-20.808-20.808v-24.276
			c0.002-11.474,9.336-20.808,20.809-20.808c11.474,0,20.808,9.334,20.808,20.808c0,4.788,3.882,8.671,8.671,8.671
			c4.788,0,8.671-3.882,8.671-8.671c0-21.036-17.113-38.149-38.149-38.149c-21.035,0-38.149,17.113-38.149,38.149v24.276
			c0,21.036,17.113,38.149,38.149,38.149s38.149-17.113,38.149-38.149C175.529,263.351,171.647,259.468,166.859,259.468z"/>
	</g>
</g>
<g>
	<g>
		<path d="M224.168,205.713c-21.035,0-38.15,17.113-38.15,38.149v24.276c0,21.036,17.113,38.149,38.149,38.149
			c21.036,0,38.149-17.113,38.149-38.149v-24.276C262.317,222.827,245.204,205.713,224.168,205.713z M244.976,268.139
			c0,11.474-9.334,20.808-20.808,20.808c-11.473,0-20.808-9.334-20.808-20.808v-24.276c0-11.473,9.334-20.808,20.808-20.808
			c11.474,0,20.808,9.334,20.808,20.808V268.139z"/>
	</g>
</g>
<g>
	<g>
		<path d="M374.621,205.713h-29.479c-4.788,0-8.671,3.882-8.671,8.671v83.233c0,4.788,3.882,8.671,8.671,8.671h29.479
			c21.035,0,38.149-17.113,38.149-38.149v-24.276C412.77,222.827,395.656,205.713,374.621,205.713z M395.428,268.139
			c0,11.474-9.334,20.808-20.808,20.808h-20.808v-65.893h20.808c11.473,0,20.808,9.334,20.808,20.808V268.139z"/>
	</g>
</g>
<g>
	<g>
		<path d="M318.817,288.946h-24.396v-74.563c0-4.788-3.882-8.671-8.671-8.671c-4.789,0-8.671,3.882-8.671,8.671v83.233
			c0,4.788,3.882,8.671,8.671,8.671h33.066c4.789,0,8.671-3.882,8.671-8.671C327.488,292.828,323.606,288.946,318.817,288.946z"/>
	</g>
</g>
<g>
	<g>
		<path d="M256.001,60.045c-4.789,0-8.671,3.882-8.671,8.671v46.243c0,4.789,3.882,8.671,8.671,8.671
			c4.788,0,8.671-3.882,8.671-8.671V68.715C264.671,63.927,260.789,60.045,256.001,60.045z"/>
	</g>
</g>
<g>
	<g>
		<path d="M162.872,108.828l-32.699-32.7c-3.386-3.386-8.876-3.386-12.261,0c-3.386,3.386-3.386,8.876,0,12.263l32.699,32.7
			c1.693,1.693,3.912,2.54,6.131,2.54s4.438-0.846,6.131-2.54C166.259,117.704,166.259,112.214,162.872,108.828z"/>
	</g>
</g>
<g>
	<g>
		<path d="M394.09,76.128c-3.386-3.386-8.876-3.385-12.261,0l-32.7,32.699c-3.386,3.386-3.386,8.876,0,12.263
			c1.693,1.694,3.911,2.54,6.131,2.54c2.219,0,4.438-0.846,6.131-2.54l32.7-32.699C397.476,85.004,397.476,79.514,394.09,76.128z"/>
	</g>
</g>
<g>
	<g>
		<path d="M256.001,388.371c-4.789,0-8.671,3.882-8.671,8.671v46.243c0,4.788,3.882,8.671,8.671,8.671
			c4.788,0,8.671-3.882,8.671-8.671v-46.243C264.671,392.254,260.789,388.371,256.001,388.371z"/>
	</g>
</g>
<g>
	<g>
		<path d="M394.09,423.61l-32.7-32.699c-3.386-3.386-8.876-3.386-12.261,0c-3.386,3.386-3.386,8.876,0,12.261l32.7,32.699
			c1.692,1.694,3.912,2.54,6.131,2.54s4.438-0.846,6.131-2.54C397.476,432.485,397.476,426.995,394.09,423.61z"/>
	</g>
</g>
<g>
	<g>
		<path d="M162.873,390.911c-3.385-3.386-8.875-3.386-12.261,0l-32.7,32.699c-3.386,3.386-3.386,8.875,0,12.261
			c1.693,1.694,3.912,2.54,6.131,2.54s4.438-0.846,6.131-2.54l32.7-32.699C166.259,399.787,166.259,394.297,162.873,390.911z"/>
	</g>
</g>
<g>
</g>
<g>
</g>
<g>
</g>
<g>
</g>
<g>
</g>
<g>
</g>
<g>
</g>
<g>
</g>
<g>
</g>
<g>
</g>
<g>
</g>
<g>
</g>
<g>
</g>
<g>
</g>
<g>
</g>
</svg>
