<svg height="512pt" viewBox="0 -5 512 512" width="512pt" xmlns="http://www.w3.org/2000/svg"><path d="m229.386719 112.242188c16.230469 6.488281 20.21875 10.503906 26.675781 26.847656 1.683594 4.261718 5.730469 7.019531 10.308594 7.019531 4.574218 0 8.621094-2.757813 10.308594-7.023437 6.453124-16.339844 10.441406-20.355469 26.675781-26.84375 4.238281-1.695313 6.976562-5.746094 6.976562-10.316407 0-4.574219-2.738281-8.625-6.976562-10.320312-16.234375-6.488281-20.222657-10.503907-26.675781-26.84375-1.6875-4.265625-5.730469-7.023438-10.308594-7.023438s-8.625 2.757813-10.3125 7.023438c-6.453125 16.339843-10.441406 20.355469-26.671875 26.84375-4.242188 1.695312-6.980469 5.746093-6.980469 10.316406 0 4.574219 2.738281 8.625 6.980469 10.320313zm36.984375-33.5625c5.574218 11.523437 11.667968 17.636718 23.164062 23.246093-11.496094 5.605469-17.589844 11.71875-23.164062 23.242188-5.578125-11.523438-11.671875-17.636719-23.167969-23.242188 11.496094-5.609375 17.589844-11.722656 23.167969-23.246093zm0 0"/><path d="m316.183594 46.070312c12.410156 4.964844 15.238281 7.8125 20.175781 20.304688 1.566406 3.976562 5.335937 6.546875 9.605469 6.546875 4.265625 0 8.039062-2.570313 9.609375-6.542969 4.933593-12.496094 7.761719-15.34375 20.171875-20.304687 3.949218-1.582031 6.503906-5.351563 6.503906-9.613281 0-4.261719-2.554688-8.035157-6.503906-9.613282-12.410156-4.960937-15.238282-7.808594-20.171875-20.308594-1.570313-3.972656-5.34375-6.539062-9.609375-6.539062-4.269532 0-8.039063 2.570312-9.605469 6.539062-4.9375 12.5-7.765625 15.347657-20.171875 20.308594-3.953125 1.578125-6.507812 5.347656-6.507812 9.613282 0 4.261718 2.554687 8.03125 6.503906 9.609374zm29.78125-24.539062c3.753906 6.816406 8.085937 11.15625 14.886718 14.929688-6.800781 3.769531-11.132812 8.109374-14.886718 14.925781-3.753906-6.816407-8.082032-11.15625-14.886719-14.925781 6.804687-3.769532 11.132813-8.113282 14.886719-14.929688zm0 0"/><path d="m164.160156 67.640625c11.109375 4.4375 13.445313 6.792969 17.863282 17.980469 1.53125 3.867187 5.203124 6.367187 9.355468 6.367187 4.15625 0 7.828125-2.5 9.359375-6.371093 4.414063-11.183594 6.75-13.535157 17.859375-17.976563 3.847656-1.539063 6.332032-5.210937 6.332032-9.359375 0-4.152344-2.488282-7.828125-6.332032-9.363281-11.109375-4.4375-13.445312-6.789063-17.859375-17.976563-1.53125-3.871094-5.203125-6.371094-9.359375-6.371094-4.152344 0-7.824218 2.5-9.355468 6.371094-4.417969 11.1875-6.753907 13.539063-17.859376 17.976563-3.847656 1.535156-6.335937 5.210937-6.335937 9.363281 0 4.148438 2.484375 7.820312 6.332031 9.359375zm27.21875-21.414063c3.109375 5.316407 6.714844 8.929688 12.023438 12.054688-5.308594 3.125-8.914063 6.738281-12.023438 12.054688-3.113281-5.316407-6.71875-8.929688-12.023437-12.054688 5.308593-3.125 8.914062-6.738281 12.023437-12.054688zm0 0"/><path d="m474.03125 242.210938c-2.695312-3.144532-7.433594-3.503907-10.574219-.808594-3.144531 2.699218-3.503906 7.433594-.808593 10.578125 22.152343 25.804687 34.351562 58.839843 34.351562 93.019531 0 78.402344-63.234375 142.183594-140.964844 142.183594-77.726562 0-140.960937-63.78125-140.960937-142.183594 0-36.246094 13.523437-69.355469 35.738281-94.496094 2.929688 5.003906 5.496094 10.25 7.632812 15.71875-17.203124 21.59375-27.507812 48.996094-27.507812 78.777344 0 69.515625 56.121094 126.070312 125.097656 126.070312 68.984375 0 125.105469-56.554687 125.105469-126.070312s-56.121094-126.066406-125.105469-126.066406c-22.230468 0-43.113281 5.886718-61.226562 16.175781-2.425782-4.761719-5.097656-9.398437-8.007813-13.902344 20.464844-11.691406 44.085938-18.390625 69.234375-18.390625 29.457032 0 57.671875 9.066406 81.589844 26.222656 3.367188 2.414063 8.054688 1.644532 10.46875-1.722656 2.414062-3.367187 1.640625-8.050781-1.726562-10.464844-16.90625-12.125-35.753907-20.597656-55.652344-25.140624l21.726562-21.929688c4.296875-4.335938 5.246094-11.597656 2.214844-16.894531l-13.148438-22.960938c-2.691406-4.699219-8.578124-8.109375-13.992187-8.109375h-62.59375c-5.390625 0-11.277344 3.378906-13.996094 8.035156l-13.4375 23c-3.09375 5.292969-2.171875 12.574219 2.144531 16.929688l21.757813 21.957031c-15.453125 3.546875-30.027344 9.425781-43.367187 17.226563-4.320313-5.457032-9.015626-10.660156-14.089844-15.566406-18.046875-17.453126-39.609375-30.050782-63.003906-37.125.125-1.152344.199218-2.316407.199218-3.5 0-17.734376-14.359375-32.160157-32.011718-32.160157h-26.308594c-17.648438 0-32.007813 14.425781-32.007813 32.160157 0 1.195312.070313 2.375.199219 3.539062-64.148438 19.5-111 79.589844-111 150.511719 0 86.671875 69.964844 157.1875 155.960938 157.1875 27.59375 0 54.460937-7.300781 78.144531-21.144531 28.597656 36.121093 72.621093 59.320312 121.929687 59.320312 86-.003906 155.964844-70.515625 155.964844-157.1875 0-37.761719-13.484375-74.265625-37.96875-102.789062zm-115.855469-54.375h-4.269531l-6.945312-19.382813h18.152343zm29.234375-51.019532c.324219.074219.90625.410156 1.132813.65625l9.152343 15.980469h-15.820312l-3.441406-16.636719zm-6.363281 31.632813h11.597656l-18.160156 18.328125zm-31.980469-31.632813h14.046875l3.441407 16.636719h-21zm-25.242187.683594c.238281-.257812.855469-.609375 1.195312-.683594h8.71875l-3.511719 16.632813h-15.71875zm-4.394531 30.949219h11.597656l6.5625 18.328125zm-73.492188 176.550781c0-22.335938 6.582031-43.140625 17.875-60.578125 1.476562 7.238281 2.25 14.730469 2.25 22.402344 0 21.628906-6.269531 42.671875-17.847656 60.605469-1.480469-7.25-2.277344-14.746094-2.277344-22.429688zm-103.128906-209.386719h26.304687c9.316407 0 16.898438 7.59375 17.003907 16.964844-9.84375-1.9375-19.929688-2.9375-30.15625-2.9375-10.3125 0-20.394532 1.023437-30.152344 2.960937.089844-9.382812 7.679687-16.988281 17-16.988281zm13.152344 313.398438c-77.726563 0-140.960938-63.785157-140.960938-142.1875 0-78.398438 63.234375-142.183594 140.960938-142.183594 36.539062 0 71.179687 14.042969 97.542968 39.539063 26.300782 25.4375 41.671875 59.617187 43.277344 96.242187.183594 4.140625 3.6875 7.351563 7.824219 7.164063 4.136719-.183594 7.34375-3.683594 7.164062-7.820313-.777343-17.6875-4.457031-34.851563-10.78125-50.925781 16.207031-9.476563 35.007813-14.910156 55.046875-14.910156 60.710938 0 110.105469 49.828124 110.105469 111.070312s-49.394531 111.070312-110.105469 111.070312c-34.828125 0-65.921875-16.414062-86.109375-41.960937 20.167969-21.722656 33.6875-48.421875 39.222657-77.621094.773437-4.070312-1.898438-7.996093-5.96875-8.765625-4.0625-.769531-7.996094 1.898438-8.769532 5.96875-4.796875 25.308594-16.222656 48.542969-33.214844 67.730469-2.953124-5.035156-5.503906-10.296875-7.628906-15.738281 17.761719-22.3125 27.496094-50.140625 27.496094-78.859375 0-69.515625-56.117188-126.066407-125.097656-126.066407-16.570313 0-32.671875 3.210938-47.855469 9.550782-3.820313 1.597656-5.625 5.988281-4.03125 9.8125 1.597656 3.824218 5.992187 5.625 9.8125 4.03125 13.34375-5.570313 27.5-8.394532 42.074219-8.394532 34.851562 0 65.976562 16.421876 86.164062 42-26.070312 28.105469-42.050781 65.824219-42.050781 107.238282 0 20.46875 3.90625 40.027344 11 57.972656-16.710937 9.773438-35.632813 14.925781-55.113281 14.925781-60.710938 0-110.101563-49.828125-110.101563-111.070312 0-32.730469 14.21875-63.644531 39.007813-84.8125 3.152344-2.691407 3.523437-7.425781.835937-10.574219-2.691406-3.152344-7.425781-3.523438-10.574219-.835938-28.132812 24.023438-44.269531 59.09375-44.269531 96.222657 0 69.515625 56.121094 126.070312 125.101563 126.070312 21.609375 0 42.628906-5.5625 61.289062-16.152343 2.433594 4.769531 5.113282 9.421874 8.019532 13.917968-21.078126 12.03125-44.878907 18.351563-69.3125 18.351563zm0 0"/></svg>